<?xml version="1.0" encoding="UTF-8"?>
<svg id="Calque_2" data-name="Calque 2" xmlns="http://www.w3.org/2000/svg" viewBox="0 0 46.17 15.68">
  <defs>
    <style>
      .cls-1 {
        fill: #1d1d1b;
        stroke-width: 0px;
      }
    </style>
  </defs>
  <g id="Calque_1-2" data-name="Calque 1">
    <g>
      <path class="cls-1" d="M14.92,6.21c-2.62,0-4.74,2.12-4.74,4.73s2.12,4.74,4.74,4.74,4.73-2.12,4.73-4.74-2.12-4.73-4.73-4.73ZM14.92,13.78c-1.57,0-2.84-1.27-2.84-2.84s1.27-2.83,2.84-2.83,2.83,1.27,2.83,2.83-1.27,2.84-2.83,2.84Z"/>
      <path class="cls-1" d="M25.12,6.21c-1.01,0-1.95.32-2.72.86V2.53h-2.02v13.15h2.02v-.86c.77.54,1.71.86,2.72.86,2.61,0,4.73-2.12,4.73-4.74s-2.12-4.73-4.73-4.73ZM25.12,13.78c-1.29,0-2.38-.86-2.72-2.04-.08-.25-.12-.52-.12-.8s.04-.55.12-.8c.34-1.17,1.43-2.03,2.72-2.03,1.56,0,2.83,1.27,2.83,2.83s-1.27,2.84-2.83,2.84Z"/>
      <path class="cls-1" d="M35.31,6.21c-1.01,0-1.95.32-2.71.85V2.53h-2.03v13.15h2.03v-.85c.76.53,1.7.85,2.71.85,2.61,0,4.73-2.12,4.73-4.74s-2.12-4.73-4.73-4.73ZM35.31,13.78c-1.28,0-2.36-.85-2.71-2.01,0-.01-.01-.02-.01-.03-.02-.07-.04-.14-.05-.22-.05-.18-.07-.38-.07-.58s.02-.4.07-.58c.01-.08.03-.15.05-.22,0-.01.01-.02.01-.03.35-1.16,1.43-2,2.71-2,1.56,0,2.83,1.27,2.83,2.83s-1.27,2.84-2.83,2.84Z"/>
      <rect class="cls-1" x="40.77" y="6.57" width="2.02" height="9.11"/>
      <polygon class="cls-1" points="46.17 1.24 44.93 0 41.79 3.14 40.09 1.45 38.85 2.69 40.55 4.39 40.55 4.39 41.79 5.63 41.79 5.63 41.79 5.63 43.03 4.39 43.03 4.39 46.17 1.24"/>
      <path class="cls-1" d="M7.56,11.04c-.08,1.51-1.32,2.7-2.83,2.7s-2.72-1.15-2.83-2.62H0c.11,2.52,2.18,4.52,4.73,4.52s4.73-2.12,4.73-4.74h0s0-8.37,0-8.37h-1.9v8.51Z"/>
    </g>
  </g>
</svg>